<svg width="98" height="59" viewBox="0 0 98 59" fill="none" xmlns="http://www.w3.org/2000/svg">
<path d="M15 43.1627C-0.962647 27.2001 14.9999 5.9166 30.9626 5.91658C46.9253 5.91656 34.9533 44.4929 24.3116 33.8511C13.6698 23.2094 52.246 11.2376 52.2461 27.2002C52.2461 43.1628 30.9627 59.1254 15 43.1627Z" stroke="black" stroke-width="3.76243" stroke-linecap="round"/>
<path d="M77.6507 46.0814L77.3627 41.6654V22.0814H81.8747V46.0814H77.6507ZM60.7547 34.3694V22.0814H65.3147V34.3694H60.7547ZM65.3147 34.3694C65.3147 36.5134 65.5547 38.1614 66.0347 39.3134C66.5467 40.4654 67.2507 41.2654 68.1467 41.7134C69.0427 42.1614 70.0507 42.4014 71.1707 42.4334C73.1227 42.4334 74.6427 41.7454 75.7307 40.3694C76.8187 38.9934 77.3627 37.0574 77.3627 34.5614H79.3307C79.3307 37.0894 78.9467 39.2654 78.1787 41.0894C77.4427 42.8814 76.3867 44.2574 75.0107 45.2174C73.6347 46.1774 71.9547 46.6574 69.9707 46.6574C68.1147 46.6574 66.4827 46.2734 65.0747 45.5054C63.6987 44.7374 62.6267 43.5374 61.8587 41.9054C61.1227 40.2734 60.7547 38.1614 60.7547 35.5694V34.3694H65.3147ZM88.525 46.0814V22.0814H93.085V46.0814H88.525ZM90.829 16.9934C90.093 16.9934 89.453 16.7214 88.909 16.1774C88.365 15.6014 88.093 14.9454 88.093 14.2094C88.093 13.4414 88.365 12.8014 88.909 12.2894C89.453 11.7454 90.093 11.4734 90.829 11.4734C91.597 11.4734 92.237 11.7454 92.749 12.2894C93.293 12.8014 93.565 13.4414 93.565 14.2094C93.565 14.9454 93.293 15.6014 92.749 16.1774C92.237 16.7214 91.597 16.9934 90.829 16.9934Z" fill="black"/>
</svg>
